<svg aria-hidden="true" style="position: absolute; width: 0; height: 0; overflow: hidden;" version="1.1"
    xmlns="http://www.w3.org/2000/svg" xmlns:xlink="http://www.w3.org/1999/xlink">
    <defs>
        <symbol id="icon-map-pin" viewBox="0 0 24 24">
            <path
                d="M22 10c0-2.761-1.12-5.263-2.929-7.071s-4.31-2.929-7.071-2.929-5.263 1.12-7.071 2.929-2.929 4.31-2.929 7.071c0 0.569 0.053 1.128 0.15 1.676 0.274 1.548 0.899 3.004 1.682 4.32 2.732 4.591 7.613 7.836 7.613 7.836 0.331 0.217 0.765 0.229 1.109 0 0 0 4.882-3.245 7.613-7.836 0.783-1.316 1.408-2.772 1.682-4.32 0.098-0.548 0.151-1.107 0.151-1.676zM20 10c0 0.444-0.041 0.887-0.119 1.328-0.221 1.25-0.737 2.478-1.432 3.646-1.912 3.214-5.036 5.747-6.369 6.74-1.398-0.916-4.588-3.477-6.53-6.74-0.695-1.168-1.211-2.396-1.432-3.646-0.077-0.441-0.118-0.884-0.118-1.328 0-2.209 0.894-4.208 2.343-5.657s3.448-2.343 5.657-2.343 4.208 0.894 5.657 2.343 2.343 3.448 2.343 5.657zM16 10c0-1.104-0.449-2.106-1.172-2.828s-1.724-1.172-2.828-1.172-2.106 0.449-2.828 1.172-1.172 1.724-1.172 2.828 0.449 2.106 1.172 2.828 1.724 1.172 2.828 1.172 2.106-0.449 2.828-1.172 1.172-1.724 1.172-2.828zM14 10c0 0.553-0.223 1.051-0.586 1.414s-0.861 0.586-1.414 0.586-1.051-0.223-1.414-0.586-0.586-0.861-0.586-1.414 0.223-1.051 0.586-1.414 0.861-0.586 1.414-0.586 1.051 0.223 1.414 0.586 0.586 0.861 0.586 1.414z">
            </path>
        </symbol>
        <symbol id="icon-network" viewBox="0 0 20 20">
            <path
                d="M10 20c-5.523 0-10-4.477-10-10s4.477-10 10-10v0c5.523 0 10 4.477 10 10s-4.477 10-10 10v0zM17.75 12c0.161-0.6 0.254-1.289 0.254-2s-0.093-1.4-0.266-2.056l0.013 0.056h-3.82c0.044 0.598 0.070 1.296 0.070 2s-0.025 1.402-0.075 2.093l0.005-0.093h3.82zM16.93 14h-3.22c-0.186 1.31-0.518 2.493-0.985 3.605l0.035-0.095c1.782-0.67 3.226-1.9 4.15-3.472l0.020-0.038zM8.080 12h3.84c0.052-0.599 0.081-1.296 0.081-2s-0.030-1.401-0.088-2.090l0.006 0.090h-3.84c-0.052 0.599-0.081 1.296-0.081 2s0.030 1.401 0.088 2.090l-0.006-0.090zM8.33 14c0.41 2.4 1.13 4 1.67 4s1.26-1.6 1.67-4h-3.34zM2.25 12h3.82c-0.044-0.598-0.070-1.296-0.070-2s0.025-1.402 0.075-2.093l-0.005 0.093h-3.82c-0.161 0.6-0.254 1.289-0.254 2s0.093 1.4 0.266 2.056l-0.013-0.056zM3.070 14c0.944 1.61 2.388 2.84 4.115 3.492l0.055 0.018c-0.42-0.96-0.74-2.16-0.95-3.51h-3.22zM16.93 6c-0.944-1.61-2.388-2.84-4.115-3.492l-0.055-0.018c0.42 0.96 0.74 2.16 0.95 3.51h3.22zM8.33 6h3.34c-0.41-2.4-1.13-4-1.67-4s-1.26 1.6-1.67 4zM3.070 6h3.22c0.2-1.35 0.53-2.55 0.95-3.51-1.782 0.67-3.226 1.9-4.15 3.472l-0.020 0.038z">
            </path>
        </symbol>
        <symbol id="icon-search" viewBox="0 0 24 24">
            <path
                d="M16.041 15.856c-0.034 0.026-0.067 0.055-0.099 0.087s-0.060 0.064-0.087 0.099c-1.258 1.213-2.969 1.958-4.855 1.958-1.933 0-3.682-0.782-4.95-2.050s-2.050-3.017-2.050-4.95 0.782-3.682 2.050-4.95 3.017-2.050 4.95-2.050 3.682 0.782 4.95 2.050 2.050 3.017 2.050 4.95c0 1.886-0.745 3.597-1.959 4.856zM21.707 20.293l-3.675-3.675c1.231-1.54 1.968-3.493 1.968-5.618 0-2.485-1.008-4.736-2.636-6.364s-3.879-2.636-6.364-2.636-4.736 1.008-6.364 2.636-2.636 3.879-2.636 6.364 1.008 4.736 2.636 6.364 3.879 2.636 6.364 2.636c2.125 0 4.078-0.737 5.618-1.968l3.675 3.675c0.391 0.391 1.024 0.391 1.414 0s0.391-1.024 0-1.414z">
            </path>
        </symbol>
        <symbol id="icon-drop-menu" viewBox="0 0 20 20">
            <path
                d="M13.418 7.859c0.271-0.268 0.709-0.268 0.978 0s0.272 0.701 0 0.969l-3.908 3.83c-0.27 0.268-0.707 0.268-0.979 0l-3.908-3.83c-0.27-0.267-0.27-0.701 0-0.969s0.709-0.268 0.978 0l3.421 3.141 3.418-3.141z">
            </path>
        </symbol>
        <symbol id="icon-logo" viewBox="0 0 32 32">
            <path
                d="M11.886 0.8c-8.057 2.229-13.029 10.171-11.314 18.286 3.143 15.257 24 17.257 30.057 2.857 1.371-3.2 1.314-9.029-0.171-12.229-3.143-6.971-11.371-10.914-18.571-8.914zM19.886 6c2.8 1.2 4.629 2.971 5.886 5.714 2.571 5.486-0.057 11.829-5.886 14.286-2.857 1.143-3.886 1.086-3.886-0.286 0-0.8 0.571-1.257 2.229-1.714 2.743-0.743 5.486-3.714 6-6.571 0.229-1.143 0.286-2.286 0.057-2.457-0.171-0.171-1.429 0.8-2.8 2.114-2.629 2.571-3.771 2.686-3.771 0.286 0-0.971 0.286-1.371 1.143-1.371 1.6 0 1.429-1.6-0.114-1.829-0.971-0.114-1.371-0.629-1.486-1.771-0.171-1.257-0.457-1.543-1.829-1.543-1.029 0-1.943-0.457-2.514-1.257l-0.914-1.257-1.714 1.657c-0.914 0.914-1.829 2.114-2.057 2.686-0.343 1.086-2.514 1.486-2.514 0.457 0-1.086 1.543-3.657 2.971-4.971 3.086-2.857 7.429-3.714 11.2-2.171zM15.657 15.2c3.314 3.314 0.914 8.457-3.714 8.171-1.943-0.171-2.629 0.114-3.886 1.314-1.257 1.257-1.657 1.371-2.457 0.8-0.914-0.686-0.857-0.857 0.629-2.286 1.429-1.371 1.6-1.886 1.371-3.943-0.229-2-0.057-2.686 1.2-4 1.943-2.114 4.743-2.114 6.857-0.057z">
            </path>
            <path
                d="M10.629 16.914c-1.714 1.714-0.743 4.229 1.657 4.229s3.371-2.514 1.657-4.229c-0.457-0.514-1.257-0.914-1.657-0.914s-1.2 0.4-1.657 0.914z">
            </path>
        </symbol>
    </defs>
</svg>